P3
11 13
15
15 15 15 15 15 15 15 15 15  7  7  7  0  0  0  0  0  0  0  0  0  7  7  7 15 15 15 15 15 15 15 15 15 
15 15 15 15 15 15  7  7  7  0  0  0  0  0  0  0  0  0  0  0  0  0  0  0 11 11 11 15 15 15 15 15 15 
15 15 15 15 15 15  0  0  0  0  0  0 15 15 15 15 15 15 11 11 11  0  0  0  7  7  7 15 15 15 15 15 15 
15 15 15 15 15 15  0  0  0  0  0  0 15 15 15 15 15 15 15 15 15  0  0  0  0  0  0 15 15 15 15 15 15 
15 15 15 15 15 15  0  0  0  0  0  0 15 15 15 15 15 15 15 15 15  0  0  0  0  0  0 15 15 15 15 15 15 
15 15 15 15 15 15  0  0  0  0  0  0 11 11 11 15 15 15 15 15 15  0  0  0  0  0  0 15 15 15 15 15 15 
15 15 15 15 15 15  7  7  7  0  0  0  0  0  0  0  0  0  0  0  0  0  0  0  0  0  0 15 15 15 15 15 15 
15 15 15 15 15 15 15 15 15  7  7  7  0  0  0  0  0  0  7  7  7  0  0  0  0  0  0 15 15 15 15 15 15 
15 15 15 15 15 15 15 15 15 15 15 15 15 15 15 15 15 15 15 15 15  0  0  0  7  7  7 15 15 15 15 15 15 
15 15 15 15 15 15 15 15 15 15 15 15 15 15 15 15 15 15  7  7  7  0  0  0 11 11 11 15 15 15 15 15 15 
15 15 15 15 15 15 15 15 15  0  0  0  0  0  0  0  0  0  0  0  0  7  7  7 15 15 15 15 15 15 15 15 15 
15 15 15 15 15 15 15 15 15  0  0  0  0  0  0  0  0  0  7  7  7 15 15 15 15 15 15 15 15 15 15 15 15 
15 15 15 15 15 15 15 15 15 15 15 15 15 15 15 15 15 15 15 15 15 15 15 15 15 15 15 15 15 15 15 15 15 
